<?xml version="1.0" encoding="utf-8"?>
<!-- Generator: Adobe Illustrator 15.0.0, SVG Export Plug-In . SVG Version: 6.00 Build 0)  -->
<!DOCTYPE svg PUBLIC "-//W3C//DTD SVG 1.1//EN" "http://www.w3.org/Graphics/SVG/1.1/DTD/svg11.dtd">
<svg version="1.1" id="Layer_1" xmlns="http://www.w3.org/2000/svg" xmlns:xlink="http://www.w3.org/1999/xlink" x="0px" y="0px"
	 width="501px" height="395px" viewBox="0 0 501 395" enable-background="new 0 0 501 395" xml:space="preserve">
<g>
	<g>
		<path d="M74.382,331.035C57.531,300.924,48.625,266.679,48.625,232c0-111.989,91.109-203.1,203.098-203.1
			c111.989,0,203.1,91.11,203.1,203.1c0,34.281-8.713,68.18-25.196,98.031l-5.252-2.9c15.994-28.966,24.448-61.862,24.448-95.131
			c0-108.681-88.419-197.1-197.1-197.1c-108.68,0-197.098,88.418-197.098,197.1c0,33.655,8.643,66.888,24.993,96.105L74.382,331.035
			z"/>
	</g>
	<g>
		<path d="M349,236H154v-3c0-26.358,10.184-50.984,28.637-69.342c18.369-18.274,42.908-28.339,69.076-28.339
			s50.5,10.064,68.869,28.339C339.035,182.016,349,206.642,349,233V236z M160.089,230h183.27
			c-1.531-49.968-41.229-88.681-91.635-88.681S161.62,180.032,160.089,230z"/>
	</g>
	<g>
		<path d="M406,236H97v-3c0-41.387,16.216-80.215,45.383-109.332c29.124-29.074,67.978-45.086,109.265-45.086
			s80.032,16.012,109.155,45.086C389.971,152.785,406,191.613,406,233V236z M103.335,230h296.776
			c-1.605-80.457-67.554-145.418-148.388-145.418C170.889,84.582,104.94,149.543,103.335,230z"/>
	</g>
	<g>
		<g>
			<path d="M436,203H279v-45h53v-20h157v45h-53V203z M285,197h145v-20h53v-33H338v20h-53V197z"/>
		</g>
	</g>
	<g>
		<path d="M157,183H98v-59h59V183z M104,177h47v-47h-47V177z"/>
	</g>
	<g>
		<path d="M97.283,267.386h6.35v85.46h41.971v5.522h-48.32V267.386z"/>
		<path d="M157.477,323.438v-56.053h6.35v55.362c0,24.161,11.322,31.479,24.161,31.479c13.116,0,24.852-7.317,24.852-31.479v-55.362
			h5.937v56.053c0,28.441-15.049,36.586-30.788,36.586C172.387,360.025,157.477,351.879,157.477,323.438z"/>
		<path d="M244.588,267.386h8.974l19.052,53.43c2.348,6.627,4.832,13.392,7.18,20.157h0.553c2.347-6.765,4.556-13.53,6.902-20.157
			l18.914-53.43h9.113v90.982h-6.213v-59.781c0-7.455,0.414-16.981,0.828-24.575h-0.553l-7.041,20.295l-19.604,54.12h-5.522
			l-19.743-54.12l-7.179-20.295h-0.553c0.276,7.593,0.828,17.12,0.828,24.575v59.781h-5.936V267.386z"/>
		<path d="M335.564,312.532c0-28.717,15.602-46.803,37.415-46.803c21.952,0,37.553,18.086,37.553,46.803
			c0,28.855-15.601,47.493-37.553,47.493C351.166,360.025,335.564,341.387,335.564,312.532z M403.768,312.532
			c0-25.127-12.288-41.004-30.788-41.004s-30.788,15.877-30.788,41.004c0,25.265,12.288,41.695,30.788,41.695
			S403.768,337.797,403.768,312.532z"/>
	</g>
</g>
</svg>
