<svg id="Layer_2" data-name="Layer 2" xmlns="http://www.w3.org/2000/svg" viewBox="0 0 370.4 357.5">
    <defs>
        <style>
            .cls-1{fill:#202a30}.cls-2{fill:#d8c407}.cls-3{fill:#fff}
        </style>
    </defs>
    <title>
        Artboard 1
    </title>
    <path class="cls-1" d="M-.52.33h373v357h-373z"/>
    <path class="cls-2" d="M105.58 64a45.66 45.66 0 0 1 16.69-16.69l39.9-23a45.6 45.6 0 0 1 45.6 0l39.9 23a45.6 45.6 0 0 1 22.8 39.49v45.56a45.49 45.49 0 0 1-22.9 39.48 34.37 34.37 0 0 0-17.1 29.89V214c0 13.47-9.88 25.18-23.26 26.76a26.49 26.49 0 0 1-29.74-26.26V110a7.5 7.5 0 0 1 7.5-7.5 7.5 7.5 0 0 1 7.5 7.5v105a11.5 11.5 0 1 0 23 .3v-15a49.44 49.44 0 0 1 24.77-40.79l1.74-1.16a30.29 30.29 0 0 0 13.53-25.23V87.23a30.43 30.43 0 0 0-15.26-26.38l-40-23a30.63 30.63 0 0 0-30.54 0l-40 23a30.43 30.43 0 0 0-15.25 26.38v45.47a30.46 30.46 0 0 0 15.23 26.38A49.52 49.52 0 0 1 154.48 202l1 23.45v4a7.53 7.53 0 0 1-7.53 7.54H147a7.54 7.54 0 0 1-7.54-7.53V202.1a34.37 34.37 0 0 0-17.09-29.88 45.55 45.55 0 0 1-22.89-39.52V86.85a45.66 45.66 0 0 1 6.1-22.85z"/>
    <path class="cls-3" d="M7.48 342.5v-69.67a7.28 7.28 0 0 1 7.06-7.45 7.26 7.26 0 0 1 6.94 7.45v64.5h29.4a6.74 6.74 0 0 1 6.38 5.12 6.5 6.5 0 0 1-6.1 7.88H14.9c-4.79 0-7.42-2.78-7.42-7.83zm69-67.75a7 7 0 1 1 14 0v42.65c0 13.09 7.27 21.62 21.06 21.62s20.94-8.52 20.94-21.62v-42.65a7 7 0 1 1 14 0V318c0 20.2-11.53 33.58-34.94 33.58s-35.06-13.5-35.06-33.46zm167 69.07v-56l-24.71 61a4.14 4.14 0 0 1-7.7 0l-24.59-61v56a7 7 0 1 1-14 0V279.5a11.93 11.93 0 0 1 11.9-11.93 11.79 11.79 0 0 1 11 7.5l19.5 48.47 19.63-48.47a11.78 11.78 0 0 1 11-7.5 11.93 11.93 0 0 1 11.9 11.93v64.33a7 7 0 1 1-14 0zM321.27 267c24.48 0 41.75 17.93 41.75 42.36s-17.26 42.36-41.75 42.36-41.75-17.93-41.75-42.36S296.79 267 321.27 267zm0 12.77c-16.53 0-27.06 12.65-27.06 29.59S304.75 339 321.27 339s27.06-12.77 27.06-29.59-10.65-29.64-27.06-29.64z"/>
</svg>
