<svg xmlns="http://www.w3.org/2000/svg" viewBox="0 0 170.65 223.06"><defs><style>.cls-1{fill:#d8c407;}</style></defs><title>Asset 1</title><g id="Layer_2" data-name="Layer 2"><g id="Laag_1" data-name="Laag 1"><path class="cls-1" d="M6.09,45.75A45.56,45.56,0,0,1,22.75,29.09l39.81-23a45.5,45.5,0,0,1,45.5,0l39.82,23a45.5,45.5,0,0,1,22.76,39.41v46a45.5,45.5,0,0,1-22.87,39.48,34.37,34.37,0,0,0-17.08,29.88v7.59h0v4.87a26.45,26.45,0,1,1-52.9.33V91.54A7.54,7.54,0,0,1,85.32,84h0a7.54,7.54,0,0,1,7.54,7.54v101.8h0v3a11.54,11.54,0,0,0,11,11.62,11.39,11.39,0,0,0,11.73-11.38v-15h.06a49.47,49.47,0,0,1,24.68-40.79l1.73-1.15a30.29,30.29,0,0,0,13.49-25.21v-46a30.43,30.43,0,0,0-15.22-26.35l-39.82-23a30.43,30.43,0,0,0-30.43,0l-39.81,23A30.43,30.43,0,0,0,15.07,68.5v46a30.43,30.43,0,0,0,15.22,26.35h0A49.47,49.47,0,0,1,55,183.67v27.25a7.53,7.53,0,0,1-7.53,7.54h0A7.54,7.54,0,0,1,40,210.92v-27.1A34.37,34.37,0,0,0,22.88,154,45.5,45.5,0,0,1,0,114.48v-46A45.57,45.57,0,0,1,6.09,45.75Z"/></g></g></svg>